HIERARCHY
ROOT Hips
{
  OFFSET -125.086 92.215 135.881
  CHANNELS 6 Xposition Yposition Zposition Zrotation Xrotation Yrotation
  JOINT LeftUpLeg
  {
    OFFSET 8.64259 1.95398 -2.38835
    CHANNELS 3 Zrotation Xrotation Yrotation
    JOINT LeftLeg
    {
      OFFSET 43.7702 0 0
      CHANNELS 3 Zrotation Xrotation Yrotation
      JOINT LeftFoot
      {
        OFFSET 40.6238 0 0
        CHANNELS 3 Zrotation Xrotation Yrotation
        JOINT LeftToeBase
        {
          OFFSET 12.7242 0 0
          CHANNELS 3 Zrotation Xrotation Yrotation
          End Site
          {
            OFFSET 0 0 0
          }
        }
      }
    }
  }
  JOINT RightUpLeg
  {
    OFFSET -8.2249 1.95398 -2.59336
    CHANNELS 3 Zrotation Xrotation Yrotation
    JOINT RightLeg
    {
      OFFSET 43.5653 0 0
      CHANNELS 3 Zrotation Xrotation Yrotation
      JOINT RightFoot
      {
        OFFSET 40.6238 0 0
        CHANNELS 3 Zrotation Xrotation Yrotation
        JOINT RightToeBase
        {
          OFFSET 12.7242 0 0
          CHANNELS 3 Zrotation Xrotation Yrotation
          End Site
          {
            OFFSET 0 0 0
          }
        }
      }
    }
  }
  JOINT Spine
  {
    OFFSET 0.165834 0.87714 6.61349
    CHANNELS 3 Zrotation Xrotation Yrotation
    JOINT Spine1
    {
      OFFSET 7.38963 1.71661e-005 0
      CHANNELS 3 Zrotation Xrotation Yrotation
      JOINT Spine2
      {
        OFFSET 11.9445 1.14441e-005 0
        CHANNELS 3 Zrotation Xrotation Yrotation
        JOINT Spine3
        {
          OFFSET 14.7254 4.19617e-005 0
          CHANNELS 3 Zrotation Xrotation Yrotation
          JOINT Spine4
          {
            OFFSET 10.9679 0 0
            CHANNELS 3 Zrotation Xrotation Yrotation
            JOINT RightShoulder
            {
              OFFSET 2.46616 -1.6653 3.69651
              CHANNELS 3 Zrotation Xrotation Yrotation
              JOINT RightArm
              {
                OFFSET 13.0012 0 0
                CHANNELS 3 Zrotation Xrotation Yrotation
                JOINT RightForeArm
                {
                  OFFSET 28.7848 1.52588e-005 0
                  CHANNELS 3 Zrotation Xrotation Yrotation
                  JOINT RightHand
                  {
                    OFFSET 26.5688 1.52588e-005 0
                    CHANNELS 3 Zrotation Xrotation Yrotation
                    End Site
                    {
                      OFFSET 0 0 0
                    }
                  }
                }
              }
            }
            JOINT LeftShoulder
            {
              OFFSET 2.38034 -1.29275 -3.7523
              CHANNELS 3 Zrotation Xrotation Yrotation
              JOINT LeftArm
              {
                OFFSET 16.3182 6.10352e-005 0
                CHANNELS 3 Zrotation Xrotation Yrotation
                JOINT LeftForeArm
                {
                  OFFSET 27.0901 0 0
                  CHANNELS 3 Zrotation Xrotation Yrotation
                  JOINT LeftHand
                  {
                    OFFSET 24.5451 1.52588e-005 0
                    CHANNELS 3 Zrotation Xrotation Yrotation
                    End Site
                    {
                      OFFSET 0 0 0
                    }
                  }
                }
              }
            }
            JOINT Neck
            {
              OFFSET 5.0226 -0.0266342 0
              CHANNELS 3 Zrotation Xrotation Yrotation
              JOINT Head
              {
                OFFSET 6.69363 2.86102e-005 0
                CHANNELS 3 Zrotation Xrotation Yrotation
                End Site
                {
                  OFFSET 0 0 0
                }
              }
            }
          }
        }
      }
    }
  }
}
MOTION
Frames:	18
Frame Time:	0.0416667
234.764 99.714 -255.397 -91.489 -58.8729 -90.0735 -174.968 -1.01124 90.7401 -8.26636 15.1245 3.70257 57.7636 3.93321 10.3775 41.73 -1.11148 3.77254 176.47 4.76181 91.4294 -19.1715 -11.449 -0.427424 56.6079 0.988534 2.31936 47.4707 -3.52809 -8.89895 0.428263 8.30259 -91.4738 10.2618 0.179875 -2.94239 -1.41252 0.0502553 -2.94746 -23.9236 1.05555 -2.75257 -3.91097 1.05554 -2.75258 138.819 -41.9366 -22.4421 22.3586 -12.0522 -17.7897 -21.803 -40.1385 -46.6409 -16.9599 -1.99041 8.51918 0.963313 -68.1752 -171.749 -11.5704 -3.28012 -35.4372 8.53762 67.5812 -21.997 -7.67299 0.372138 -14.3395 72.7447 35.2963 12.9807 -75.9716 30.3552 -13.3761 
234.821 99.6786 -255.416 -91.2755 -58.7665 -90.5342 -175.53 -0.995116 89.9505 -8.25201 14.4331 3.69079 57.9602 4.25869 11.3203 41.1453 -1.068 2.50267 176.14 5.36886 90.6929 -20.0805 -11.5831 -0.43615 57.2093 0.817387 2.35124 47.1597 -3.41893 -8.33253 0.399756 8.27388 -91.3887 10.3198 0.161156 -2.7722 -1.35406 0.0390615 -2.7766 -23.8678 0.986602 -2.59583 -3.85516 0.986619 -2.59582 138.515 -41.6649 -22.7012 20.7352 -23.1606 -17.7765 7.26243 -7.25484 -35.3519 -40.7779 2.59371 -8.52966 0.942219 -68.1765 -171.771 -12.0117 -3.53128 -35.5735 7.5113 66.3217 -20.9774 -8.8283 0.342767 -11.9975 72.9475 34.5533 12.5461 -78.087 29.7629 -12.422 
234.771 99.6397 -255.423 -91.4881 -59.0643 -90.5865 -175.374 -1.08452 90.5521 -8.35503 14.978 3.69702 57.7945 3.95166 9.83916 42.2442 -1.13666 5.15393 176.175 5.01613 90.9229 -19.6813 -12.7924 -0.386393 57.137 0.531349 0.745808 47.1362 -3.4959 -9.20578 0.31483 8.23613 -91.3827 10.3936 -0.00612285 -2.7454 -1.2802 -0.126888 -2.74249 -23.7936 0.818972 -2.62051 -3.78096 0.818995 -2.6205 137.723 -41.2099 -23.5519 18.704 -36.8138 -18.2476 58.0054 38.3812 -62.1348 -58.6571 16.1437 -35.667 -0.627092 -68.1202 -173.342 -12.6223 -3.30939 -35.4117 8.98471 66.4281 -22.2625 -9.9934 0.481933 -13.0605 73.1836 32.246 10.9788 -82.5565 27.2452 -9.02439 
234.667 99.5424 -255.325 -89.4592 -59.4491 -88.2093 -175.133 0.0794322 90.7946 -8.42912 15.5049 3.74263 57.9575 4.08633 10.1167 41.8092 -1.116 4.4762 176.877 5.06484 92.0099 -18.3012 -16.4062 -0.511434 55.8897 0.112909 -4.00473 48.8791 -4.05773 -11.2995 0.210771 8.04201 -91.4098 10.7786 -0.230451 -2.78224 -0.895282 -0.352654 -2.76942 -23.4073 0.616046 -2.723 -3.39462 0.616051 -2.72301 136.311 -40.331 -25.0568 21.8426 -29.3917 -17.5837 23.6173 15.6145 -36.4766 -56.3311 7.60037 -20.7656 -3.92777 -67.9673 -176.659 -13.9287 -3.70148 -35.1056 18.3505 72.0883 -31.8584 -8.24077 0.159341 -8.86808 71.9775 29.4056 10.2175 -86.1079 24.3772 -6.74878 
234.726 99.5869 -255.359 -90.8106 -59.4256 -89.4937 -175.096 -0.568731 90.7284 -8.43537 15.7026 3.75819 57.727 3.99536 10.6465 42.1634 -1.13392 3.78036 176.929 4.67044 91.7583 -18.7933 -10.6792 -0.802302 57.3998 0.603958 1.68775 46.6931 -3.33245 -8.7142 0.0894374 8.03222 -91.3642 10.7963 -0.451382 -2.67107 -0.877243 -0.568442 -2.64865 -23.3905 0.37194 -2.68328 -3.37789 0.371968 -2.68327 134.383 -39.3049 -27.2977 28.2585 -3.23382 -17.6092 -46.8814 -58.0578 -63.8993 3.02233 0.463941 10.277 -7.15903 -67.78 -179.926 -14.3103 -2.75729 -34.2308 14.9861 69.4267 -28.7227 -5.4781 0.0428304 -9.28603 69.6181 27.1004 10.763 -87.888 21.7716 -5.78056 
234.922 99.5248 -255.467 -92.2667 -58.9735 -91.2538 -175.296 -1.29732 90.1803 -8.36604 14.9635 3.63519 57.7004 3.90826 9.91476 42.3271 -1.13826 5.01427 176.453 3.83885 91.1927 -18.6956 -16.8068 -0.734002 57.3053 -0.689161 -3.5021 46.85 -3.59607 -12.1774 -0.0258784 8.01126 -91.239 10.8383 -0.623711 -2.40585 -0.83464 -0.728971 -2.3761 -23.3519 0.127929 -2.48204 -3.33924 0.12793 -2.48205 131.833 -37.8279 -30.3175 30.5186 -4.48171 -16.4817 -43.734 -58.4754 -60.458 1.75804 0.330598 9.88258 -11.8818 -67.4205 175.267 -15.2692 -2.8935 -33.3769 12.1306 67.9754 -25.3184 -4.53581 0.00660762 -9.50489 66.2072 25.3316 10.7884 -86.2639 19.8261 -4.89693 
235.214 99.4981 -255.601 -92.4407 -58.4612 -91.5301 -175.491 -1.366 89.9002 -8.28017 14.4693 3.60306 57.6133 3.93866 10.3919 41.984 -1.12475 4.35754 176.322 3.76997 90.9211 -18.4691 -18.5423 -0.757409 57.2747 -0.98535 -4.38871 46.5398 -3.569 -13.0524 -0.135289 7.91126 -91.167 11.0379 -0.810316 -2.24456 -0.634609 -0.908278 -2.20676 -23.1544 -0.0984634 -2.38424 -3.14171 -0.0984699 -2.38425 129.004 -36.3753 -33.9792 31.7805 -13.4694 -14.7808 -16.9506 -44.941 -36.9483 -13.1044 -1.00921 4.18241 -15.5078 -67.0928 171.539 -15.713 -3.09091 -32.3579 11.605 66.787 -24.567 -4.841 0.0116147 -9.0988 60.7251 26.1979 12.6049 -77.9897 21.2355 -7.38 
235.507 99.4397 -255.753 -92.0958 -58.5512 -91.2176 -175.736 -0.586762 89.6936 -9.13129 14.3429 3.66434 57.7352 3.87829 10.184 42.0706 -1.12801 5.04866 176.787 3.89277 91.1179 -18.4429 -18.8882 -1.22553 57.4149 -1.37197 -5.2565 46.4137 -3.54926 -13.7548 -0.314945 7.77467 -91.1126 11.3092 -1.14503 -2.10123 -0.362836 -1.23637 -2.04884 -22.8853 -0.460774 -2.34808 -2.87263 -0.460779 -2.34808 125.553 -34.5145 -38.688 35.4046 -14.1929 -12.7147 -11.3008 -41.1912 -32.2152 -16.5111 -1.05906 2.25967 -19.7722 -66.6111 167.127 -16.8585 -3.64987 -31.2517 10.8371 65.2172 -23.0211 -5.0554 -0.00364834 -8.08607 52.4525 28.1904 15.9201 -63.875 23.0514 -11.1972 
235.725 99.6511 -255.823 -92.3111 -58.4012 -91.4842 -175.661 -0.992432 89.5962 -8.33268 13.9555 3.50311 57.7036 4.07058 10.3716 41.373 -1.0944 4.04982 172.705 4.33077 88.4069 -17.8601 -12.5925 2.58067 59.2426 -0.0338642 3.38558 41.3925 -2.03045 -4.66354 -0.478281 7.67743 -91.051 11.5029 -1.44267 -1.9465 -0.168609 -1.52694 -1.88114 -22.6945 -0.791159 -2.28993 -2.68186 -0.791156 -2.28993 121.557 -32.0313 -44.4203 40.0483 -13.8173 -11.0867 -13.6822 -44.2037 -32.662 -19.1592 -1.53092 4.10213 -23.7268 -66.1324 162.97 -18.1804 -4.51702 -29.9894 11.2743 64.0834 -22.243 -4.80258 -0.00321016 -8.48502 46.9028 27.6289 18.103 -57.8773 22.4057 -12.7488 
235.765 99.5131 -255.931 -92.5042 -58.4084 -91.5719 -175.504 -1.04344 89.774 -8.27181 13.9305 3.42696 57.7849 3.98261 9.8058 41.3055 -1.09185 4.37361 176.304 3.81368 90.5581 -18.1548 -13.7551 -0.850162 59.4327 -0.982327 1.49256 43.1659 -2.64238 -13.4368 -0.663186 7.5817 -91.0208 11.6928 -1.79795 -1.84642 0.0219239 -1.87746 -1.76552 -22.5076 -1.16006 -2.30124 -2.49492 -1.16008 -2.30125 116.911 -29.8429 -52.1685 45.133 -11.4195 -9.15784 -12.2518 -43.52 -29.0159 -14.1956 -0.85854 1.93578 -27.3497 -65.6682 159.1 -18.9103 -5.20313 -28.6395 10.4394 62.469 -20.8303 -5.42635 0.0408386 -9.30575 41.7004 26.6054 19.5342 -53.0791 21.2973 -13.1045 
235.488 99.5123 -255.901 -93.5502 -58.9945 -92.9014 -175.577 -1.63375 89.6248 -8.33759 14.7115 3.46068 57.5694 3.85093 9.97919 41.9265 -1.12164 4.62991 176.587 3.35488 90.4116 -18.6298 -9.46391 -1.39905 60.8299 -0.600642 5.12039 41.35 -2.14757 -12.4954 -0.93134 7.52265 -90.9121 11.812 -2.2809 -1.57605 0.14218 -2.34805 -1.47412 -22.3953 -1.70189 -2.18862 -2.38264 -1.7019 -2.18863 111.57 -27.947 -62.2317 50.6274 -6.50475 -7.1388 -13.1941 -44.9982 -26.7957 -13.7717 -0.883754 2.33623 -31.2262 -65.1033 154.91 -19.9668 -6.13294 -27.2565 10.5833 61.3045 -19.9603 -5.54711 0.0326736 -8.87056 36.0812 24.7665 20.3336 -48.4299 19.5678 -12.6616 
235.129 99.4564 -255.826 -93.6557 -58.7536 -93.0676 -175.44 -1.88133 89.69 -8.30012 14.1106 3.42079 57.9727 4.11658 9.64316 41.6008 -1.10691 4.38734 176.424 2.9426 90.5571 -18.4223 -11.4684 -1.23339 61.0229 -1.50309 1.89627 41.245 -2.08687 -11.0332 -1.08317 7.43414 -90.827 11.9902 -2.54358 -1.37324 0.321184 -2.60155 -1.25991 -22.2219 -2.01333 -2.07427 -2.20922 -2.01335 -2.07428 106.506 -26.2914 -72.661 55.8432 -0.673909 -6.4187 -12.9519 -45.8919 -22.7595 -14.7923 -1.04168 3.03391 -35.0986 -64.4627 150.67 -21.0228 -7.38048 -25.9391 11.3936 60.8256 -19.6153 -5.59586 0.025445 -8.61495 30.3805 22.6692 20.4429 -43.5049 17.7306 -11.6387 
234.772 99.4214 -255.689 -92.5624 -59.2605 -92.0986 -175.733 -1.35024 89.6925 -8.49543 14.4749 3.73364 57.8449 4.11088 9.70169 42.0678 -1.12783 4.91132 175.983 3.02727 90.5673 -17.9245 -13.5994 -0.615365 60.9016 -2.0576 -0.111583 41.2013 -2.09749 -12.5756 -1.29736 7.28406 -90.7742 12.2916 -2.94537 -1.21389 0.623521 -2.99594 -1.083 -21.9269 -2.4444 -2.04326 -1.91425 -2.4444 -2.04326 102.296 -27.4668 -81.8641 57.0667 4.6418 -6.61029 -13.0217 -46.8943 -19.138 -12.3066 -0.876684 3.19302 -39.1038 -63.6018 146.27 -22.1175 -7.81712 -24.183 10.5565 55.8261 -18.1413 -8.11075 0.241521 -10.9879 24.8703 20.3405 19.009 -38.6232 15.7071 -8.80485 
234.244 99.4165 -255.49 -91.9677 -58.6179 -91.2031 -175.22 -1.22931 90.3541 -8.79769 14.3917 3.65499 58.2251 4.41815 10.2146 42.3215 -1.13966 4.56638 175.883 3.39119 90.7977 -18.384 -9.54162 -0.259592 62.2249 -1.62394 4.05978 38.6767 -1.47844 -9.0452 -1.35799 7.19791 -90.741 12.465 -3.05059 -1.12944 0.797275 -3.09733 -0.993989 -21.7557 -2.57009 -1.99443 -1.74309 -2.57012 -1.99445 99.2702 -28.5922 -88.247 57.4929 5.54262 -7.04187 -7.34693 -38.3883 -11.9688 -13.6863 -0.571077 -0.522473 -42.8273 -62.6737 142.124 -22.9501 -8.51813 -22.6806 11.9035 55.0937 -19.1477 -8.49112 0.222974 -10.2489 20.621 18.481 17.0251 -35.0823 14.3489 -6.28874 
233.434 99.202 -255.19 -91.3075 -58.2338 -90.5487 -174.881 -1.09868 90.7567 -9.20716 14.9776 3.60358 58.3081 4.4599 10.796 43.855 -1.18348 5.91035 176.749 3.26343 91.792 -18.6398 -14.7886 -0.797348 61.2434 -2.99968 -2.36557 41.8982 -2.26764 -11.6006 -1.42405 7.12379 -90.6619 12.6163 -3.14441 -0.954814 0.948923 -3.18338 -0.815377 -21.6075 -2.71204 -1.85622 -1.59489 -2.71203 -1.85622 97.4729 -31.1043 -91.6554 55.8515 6.99681 -7.84015 -5.51846 -36.9474 -8.77525 -18.3795 -1.03418 1.37486 -46.6984 -61.3773 137.82 -24.4054 -8.9505 -21.587 12.5153 54.2247 -19.1512 -8.45786 0.176313 -9.40161 16.6621 16.6885 13.6636 -31.1411 13.1094 -2.64056 
232.53 99.0041 -254.768 -91.3065 -57.2244 -90.2742 -174.784 -1.33054 91.3244 -9.94002 15.0487 3.83879 58.1743 5.10128 12.3783 46.0968 -1.22561 6.96841 177.266 3.9018 92.3779 -20.8453 -11.3238 -1.09235 62.7062 -2.78866 0.786905 41.8669 -2.2093 -9.08739 -1.37121 7.13945 -90.6152 12.5858 -3.01696 -0.87748 0.918179 -3.05266 -0.743742 -21.6369 -2.61373 -1.74411 -1.62427 -2.61372 -1.74411 97.1967 -34.0945 -91.7655 53.0861 5.98517 -9.13596 -2.62535 -33.6949 -6.00692 -19.968 -0.912585 0.12785 -49.9231 -60.2669 134.127 -25.5825 -9.20693 -21.0875 12.5095 53.1745 -18.5967 -8.46717 0.207219 -9.9662 14.1057 15.0937 9.73204 -28.7479 11.9818 1.40443 
231.529 98.3818 -254.26 -91.1805 -56.4968 -90.3307 -176.032 1.49285 91.0135 -16.7479 11.9137 3.24976 59.0673 7.46312 13.3892 50.9925 -1.21605 8.5267 176.091 5.36428 91.8512 -24.8785 -13.0335 -0.00175758 65.768 -4.08447 0.502165 39.5684 -1.66179 -9.84124 -1.29748 7.16083 -90.4513 12.548 -2.79259 -0.577457 0.880007 -2.8153 -0.45389 -21.6742 -2.48986 -1.3905 -1.66158 -2.48987 -1.3905 97.8681 -38.6559 -89.945 49.0952 4.64867 -10.1528 -0.693959 -32.9095 -4.87815 -20.3812 -0.868328 -0.265386 -55.2522 -57.4917 128.069 -28.2003 -9.09217 -19.6995 13.9433 51.466 -19.6961 -7.69989 0.101522 -8.49617 12.6596 12.6284 3.22487 -28.1519 10.0957 7.11318 
230.454 97.3966 -253.782 -93.9504 -56.6259 -93.0159 -178.108 8.86405 90.2458 -34.8953 8.71658 4.17098 58.8122 7.23005 10.3611 56.9257 -0.704694 12.9668 176.068 5.92324 91.8397 -30.3287 -11.1869 -0.233644 67.5347 -3.84249 2.04378 43.2668 -2.49159 -8.26337 -1.21669 7.44627 -90.2643 11.9818 -2.54364 -0.250106 0.313297 -2.55217 -0.137851 -22.2394 -2.35081 -1.00343 -2.22679 -2.35081 -1.00343 98.4692 -42.8815 -88.4822 45.0998 3.16229 -10.5077 0.574812 -32.8214 -5.19007 -19.6032 -0.835493 -0.241884 -60.4382 -54.1761 121.907 -31.3043 -8.72512 -18.3953 15.7382 49.3698 -21.4013 -6.97463 0.0771667 -8.55858 11.6469 10.5312 -2.75916 -26.0979 8.65383 12.0723 
